<svg fill="#000000" xmlns="http://www.w3.org/2000/svg" viewBox="0 0 80 80" width="160px" height="160px"><path d="M18 33A1 1 0 1 0 18 35 1 1 0 1 0 18 33zM18 37A1 1 0 1 0 18 39 1 1 0 1 0 18 37zM18 41A1 1 0 1 0 18 43 1 1 0 1 0 18 41zM18 45A1 1 0 1 0 18 47 1 1 0 1 0 18 45zM18 29A1 1 0 1 0 18 31 1 1 0 1 0 18 29zM18 49A1 1 0 1 0 18 51 1 1 0 1 0 18 49zM18 53A1 1 0 1 0 18 55 1 1 0 1 0 18 53zM18 57A1 1 0 1 0 18 59 1 1 0 1 0 18 57zM18 25A1 1 0 1 0 18 27 1 1 0 1 0 18 25zM18 21A1 1 0 1 0 18 23 1 1 0 1 0 18 21zM18 17A1 1 0 1 0 18 19 1 1 0 1 0 18 17zM18 61A1 1 0 1 0 18 63 1 1 0 1 0 18 61zM62 33A1 1 0 1 0 62 35 1 1 0 1 0 62 33zM62 37A1 1 0 1 0 62 39 1 1 0 1 0 62 37zM62 41A1 1 0 1 0 62 43 1 1 0 1 0 62 41zM62 45A1 1 0 1 0 62 47 1 1 0 1 0 62 45zM62 49A1 1 0 1 0 62 51 1 1 0 1 0 62 49zM62 53A1 1 0 1 0 62 55 1 1 0 1 0 62 53zM62 57A1 1 0 1 0 62 59 1 1 0 1 0 62 57zM46 17A1 1 0 1 0 46 19 1 1 0 1 0 46 17zM42 17A1 1 0 1 0 42 19 1 1 0 1 0 42 17zM38 17A1 1 0 1 0 38 19 1 1 0 1 0 38 17zM34 17A1 1 0 1 0 34 19 1 1 0 1 0 34 17zM50 17A1 1 0 1 0 50 19 1 1 0 1 0 50 17zM30 17A1 1 0 1 0 30 19 1 1 0 1 0 30 17zM26 17A1 1 0 1 0 26 19 1 1 0 1 0 26 17zM22 17A1 1 0 1 0 22 19 1 1 0 1 0 22 17zM54 17A1 1 0 1 0 54 19 1 1 0 1 0 54 17zM58 17A1 1 0 1 0 58 19 1 1 0 1 0 58 17zM46 61A1 1 0 1 0 46 63 1 1 0 1 0 46 61zM42 61A1 1 0 1 0 42 63 1 1 0 1 0 42 61zM38 61A1 1 0 1 0 38 63 1 1 0 1 0 38 61zM34 61A1 1 0 1 0 34 63 1 1 0 1 0 34 61zM50 61A1 1 0 1 0 50 63 1 1 0 1 0 50 61zM30 61A1 1 0 1 0 30 63 1 1 0 1 0 30 61zM26 61A1 1 0 1 0 26 63 1 1 0 1 0 26 61zM22 61A1 1 0 1 0 22 63 1 1 0 1 0 22 61zM54 61A1 1 0 1 0 54 63 1 1 0 1 0 54 61zM58 61A1 1 0 1 0 58 63 1 1 0 1 0 58 61zM62 17A1 1 0 1 0 62 19 1 1 0 1 0 62 17zM62 61A1 1 0 1 0 62 63 1 1 0 1 0 62 61z"/><path d="M68,26.364V66c0,1.103-0.897,2-2,2H14c-1.103,0-2-0.897-2-2V14c0-1.103,0.897-2,2-2h52c0.99,0,1.808,0.725,1.967,1.67l1.545-1.545C68.837,10.867,67.525,10,66,10H14c-2.206,0-4,1.794-4,4v52c0,2.206,1.794,4,4,4h52c2.206,0,4-1.794,4-4V24.364L68,26.364z"/><path fill="none" stroke="#000000" stroke-miterlimit="10" stroke-width="3" d="M71.5 16.5L37.5 50.5 25.5 38.5"/></svg>